<?xml version="1.0" encoding="iso-8859-1"?>
<!-- Generator: Adobe Illustrator 19.0.0, SVG Export Plug-In . SVG Version: 6.00 Build 0)  -->
<svg version="1.1" id="Capa_1" xmlns="http://www.w3.org/2000/svg" x="0px" y="0px" viewBox="0 0 512.003 512.003" style="enable-background:new 0 0 512.003 512.003;"
	xml:space="preserve">
<linearGradient id="SVGID_1_" gradientUnits="userSpaceOnUse" x1="0" y1="258.0035" x2="512.0031" y2="258.0035" gradientTransform="matrix(1 0 0 -1 0 514.0051)">
    <stop offset="0" style="stop-color:#81c784"/>
	<stop offset="0.021" style="stop-color:#66bb6a"/>
	<stop offset="0.293" style="stop-color:#4caf50"/>
	<stop offset="0.554" style="stop-color:#4caf50"/>
	<stop offset="0.796" style="stop-color:#43a047"/>
	<stop offset="1" style="stop-color:#2e7d32"/>
</linearGradient>
<path style="fill:url(#SVGID_1_);" d="M474.187,81.898c-16.243-7.11-39.878-15.322-66.72-17.997
	c-7.238-36.384-39.403-63.896-77.882-63.896c-0.099,0-0.194,0.013-0.293,0.015c-0.099-0.001-0.194-0.015-0.293-0.015
	c-35.455,0-65.551,23.358-75.726,55.491c-1.921-0.791-3.854-1.568-5.812-2.316c-23.263-8.888-49.699-3.287-67.346,14.276
	l-56.527,56.263c-18.392,18.307-23.691,46.48-13.185,70.107c1.638,3.684,3.358,7.334,5.151,10.93L5.855,314.494
	C2.106,318.244,0,323.33,0,328.633v72.372c0,11.046,8.954,20,20,20h71.908c11.046,0,20-8.954,20-20v-27H138c11.046,0,20-8.954,20-20
	v-44c0-11.046-8.954-20-20-20s-20,8.954-20,20v24H91.908c-11.046,0-20,8.954-20,20v27H40v-44.09l113.939-113.976
	c2.383-2.384,4.125-5.332,5.064-8.57l0.206-0.709c1.507-5.199,0.843-10.788-1.843-15.489c-3.756-6.576-7.259-13.506-10.412-20.596
	c-3.812-8.572-1.861-18.822,4.854-25.505l56.526-56.262c6.51-6.478,16.263-8.544,24.85-5.263c15.3,5.847,29.146,13.22,41.258,21.938
	c-4.133,8.467-6.419,17.883-6.442,27.646v9.59l-17.858-17.858c-7.811-7.811-20.474-7.811-28.284,0s-7.811,20.475,0,28.285l36,36
	c2.882,2.882,6.426,4.692,10.142,5.448v18.639c-0.03,13.059,4.029,25.542,11.129,35.917l-12.123,12.066
	c-6.719,6.688-16.757,8.643-25.573,4.973c-5.112-2.126-15.284-6.672-25.971-13.231c-9.414-5.777-21.729-2.83-27.507,6.584
	c-5.777,9.414-2.83,21.729,6.584,27.508c9.642,5.918,20.841,11.626,31.532,16.072c7.947,3.307,16.267,4.914,24.505,4.914
	c16.423,0,32.517-6.394,44.648-18.469l16.163-16.087c3.524,1.311,7.063,2.571,10.619,3.729V442.08c0,5.31,2.112,10.402,5.869,14.153
	l50,49.919c3.751,3.745,8.833,5.847,14.131,5.847c0.034,0,0.068,0,0.102,0c5.334-0.027,10.436-2.184,14.172-5.99l48.995-49.919
	c7.62-7.764,7.638-20.193,0.041-27.979l-17.127-17.55l17.99-17.798c3.806-3.766,5.943-8.899,5.934-14.254
	c-0.01-5.354-2.166-10.48-5.985-14.232l-32.111-31.542c-7.88-7.738-20.542-7.627-28.283,0.254c-7.74,7.88-7.627,20.542,0.253,28.282
	l17.638,17.325l-17.688,17.499c-7.814,7.73-7.925,20.319-0.248,28.187l17.33,17.758l-21.155,21.554l-29.856-29.808v-163.78
	c0-5.244-2.06-10.278-5.736-14.019l-1.005-1.022c-2.51-2.555-5.66-4.388-9.12-5.309c-7.823-2.082-15.725-4.656-23.487-7.652
	c-8.789-3.392-14.68-12.103-14.657-21.723v-80.104c0.021-9.229,5.553-17.669,14.092-21.5c11.714-5.257,28.197-11.257,46.908-14.063
	v31.391h-4c-11.046,0-20,8.954-20,20s8.954,20,20,20h50c11.046,0,20-8.954,20-20s-8.954-20-20-20h-6v-31.671
	c19.498,2.652,36.845,8.821,49.147,14.206c8.438,3.693,13.875,12.071,13.853,21.392v81.071c-0.022,9.386-5.974,18.149-14.812,21.809
	c-8.75,3.624-17.787,6.566-26.86,8.747c-10.74,2.58-17.354,13.379-14.774,24.119c2.581,10.74,13.38,17.357,24.119,14.773
	c11.102-2.667,22.144-6.262,32.819-10.683c23.94-9.912,39.448-32.942,39.508-58.719v-81.071
	C512.059,114.777,497.217,91.979,474.187,81.898z M305.715,82.183c-1.025,0.46-2.028,0.954-3.02,1.463
	c-4.108-3.155-8.379-6.172-12.805-9.048c2.388-19.466,19.01-34.592,39.11-34.592c0.099,0,0.194-0.013,0.293-0.015
	c0.099,0.001,0.194,0.015,0.293,0.015c16.503,0,30.661,10.2,36.523,24.622C341.731,67.894,320.543,75.529,305.715,82.183z"/>
</svg>
