<svg id="Capa_1" enable-background="new 0 0 512 512" height="512" viewBox="0 0 512 512" width="512" xmlns="http://www.w3.org/2000/svg"><g><path clip-rule="evenodd" d="m256 6.321c-141.365 0-256 114.61-256 256 0 113.107 73.351 209.066 175.069 242.918 12.792 2.368 17.491-5.556 17.491-12.316 0-6.102-.236-26.272-.348-47.663-71.219 15.487-86.247-30.205-86.247-30.205-11.645-29.588-28.424-37.458-28.424-37.458-23.229-15.889 1.751-15.562 1.751-15.562 25.705 1.805 39.242 26.384 39.242 26.384 22.831 39.134 59.888 27.82 74.498 21.279 2.298-16.543 8.93-27.841 16.253-34.233-56.862-6.471-116.638-28.425-116.638-126.516 0-27.948 10.002-50.786 26.38-68.714-2.658-6.45-11.422-32.486 2.48-67.75 0 0 21.498-6.877 70.416 26.245 20.422-5.673 42.322-8.518 64.077-8.617 21.755.1 43.672 2.944 64.132 8.617 48.863-33.121 70.329-26.245 70.329-26.245 13.935 35.264 5.171 61.3 2.513 67.75 16.415 17.928 26.346 40.766 26.346 68.714 0 98.327-59.888 119.975-116.895 126.313 9.182 7.945 17.363 23.523 17.363 47.407 0 34.253-.294 61.821-.294 70.254 0 6.814 4.608 14.796 17.582 12.283 101.664-33.89 174.924-129.816 174.924-242.885 0-141.391-114.618-256-256-256z" fill-rule="evenodd"/><path d="m96.961 373.879c-.563 1.275-2.567 1.656-4.388.782-1.859-.836-2.898-2.571-2.298-3.846.55-1.308 2.554-1.672 4.409-.799 1.859.837 2.919 2.588 2.277 3.863z"/><path d="m107.332 385.446c-1.221 1.13-3.61.605-5.229-1.184-1.677-1.784-1.987-4.173-.75-5.32 1.259-1.13 3.573-.6 5.25 1.184 1.677 1.805 2.004 4.173.729 5.32z"/><path d="m117.425 400.188c-1.569 1.093-4.136.07-5.721-2.207-1.569-2.277-1.569-5.009.037-6.102 1.586-1.093 4.115-.108 5.722 2.149 1.564 2.314 1.564 5.047-.038 6.16z"/><path d="m131.252 414.434c-1.404 1.548-4.393 1.13-6.578-.982-2.24-2.061-2.861-4.993-1.457-6.541 1.424-1.549 4.43-1.114 6.632.981 2.223 2.062 2.897 5.01 1.403 6.542z"/><path d="m150.329 422.705c-.621 2.004-3.498 2.914-6.396 2.062-2.898-.878-4.79-3.225-4.206-5.25.6-2.02 3.494-2.968 6.413-2.058 2.893.875 4.789 3.205 4.189 5.246z"/><path d="m171.281 424.237c.07 2.111-2.389 3.862-5.432 3.9-3.06.07-5.539-1.639-5.572-3.718 0-2.132 2.405-3.862 5.465-3.916 3.043-.058 5.539 1.639 5.539 3.734z"/><path d="m190.776 420.921c.364 2.058-1.751 4.173-4.774 4.736-2.972.546-5.721-.728-6.102-2.77-.368-2.111 1.784-4.227 4.753-4.774 3.026-.525 5.738.713 6.123 2.808z"/></g></svg>