<?xml version="1.0" encoding="UTF-8"?>
<svg id="b" data-name="objects" xmlns="http://www.w3.org/2000/svg" viewBox="0 0 1958.65 728">
  <line x1="1652.85" y1="349.1" x2="1652.64" y2="349.21" fill="#324c8e" stroke-width="0"/>
  <polygon points="1652.64 349.21 1561.29 394.79 1562.86 376.34 1626.65 309 1652.64 349.21" fill="#1b5e20" stroke-width="0"/>
  <line x1="1652.83" y1="349.5" x2="1652.64" y2="349.21" fill="#324c8e" stroke-width="0"/>
  <path d="m1567.29,269.5l209,194.44c9.83,9.14,25.8,5.19,30.24-7.48L1957.58,24.78c4.93-14.09-7.91-27.96-22.34-24.13l-478.4,127.14c-14.15,3.76-18.61,21.63-7.9,31.61l118.34,110.1" fill="#4caf50" stroke-width="0"/>
  <path d="m1893.47,61.88l-267.36,262.29-63.5,69.56c-4.81,4.83-12.98.71-11.96-6.02l17.82-117.18,325-208.65Z" fill="#388e3c" stroke-width="0"/>
  <path d="m3,728c-.36,0-.72-.06-1.07-.2-1.55-.59-2.32-2.33-1.73-3.88,1.1-2.88,2.25-5.78,3.4-8.63.62-1.54,2.37-2.27,3.91-1.66,1.54.62,2.28,2.37,1.66,3.91-1.14,2.81-2.27,5.68-3.36,8.52-.46,1.19-1.6,1.93-2.8,1.93Zm661.65-2.29c-.06,0-.12,0-.19,0-4.11-.25-8.29-.68-12.43-1.26-1.64-.23-2.78-1.75-2.55-3.39.23-1.64,1.74-2.78,3.39-2.55,3.98.56,8.01.97,11.96,1.21,1.65.1,2.91,1.53,2.81,3.18-.1,1.59-1.42,2.82-2.99,2.82Zm30.58-1.21c-1.47,0-2.76-1.08-2.97-2.58-.23-1.64.91-3.16,2.55-3.39,3.92-.55,7.9-1.27,11.83-2.13,1.62-.35,3.22.67,3.57,2.29.35,1.62-.67,3.22-2.29,3.57-4.08.89-8.21,1.64-12.29,2.21-.14.02-.28.03-.42.03Zm-72.58-7.01c-.31,0-.62-.05-.93-.15-3.88-1.27-7.82-2.7-11.7-4.24-1.54-.61-2.29-2.36-1.68-3.9.61-1.54,2.35-2.29,3.9-1.68,3.77,1.5,7.59,2.88,11.35,4.11,1.57.52,2.43,2.21,1.92,3.78-.41,1.26-1.59,2.07-2.85,2.07Zm113.84-4.35c-1.18,0-2.3-.7-2.77-1.86-.63-1.53.1-3.29,1.63-3.92,3.67-1.51,7.38-3.18,11.01-4.95,1.49-.72,3.29-.11,4.01,1.38.73,1.49.11,3.29-1.38,4.01-3.74,1.83-7.56,3.55-11.36,5.11-.37.15-.76.23-1.14.23Zm-153-13.05c-.5,0-1-.12-1.46-.38-3.55-1.98-7.14-4.1-10.68-6.3-1.41-.87-1.84-2.72-.97-4.13s2.72-1.84,4.13-.97c3.46,2.15,6.98,4.22,10.45,6.16,1.45.81,1.96,2.64,1.15,4.08-.55.98-1.57,1.54-2.62,1.54Zm339.5-5.24c-1.65,0-3-1.34-3-3,0-1.66,1.34-3,3-3,4,0,8.08-.1,12.13-.27,1.64-.07,3.05,1.21,3.12,2.87.07,1.66-1.21,3.06-2.87,3.13-4.14.18-8.3.27-12.38.28h0Zm-30.59-1.64c-.11,0-.22,0-.33-.02-2.43-.27-4.9-.58-7.33-.92-1.66-.23-3.32-.48-4.97-.75-1.64-.26-2.75-1.81-2.48-3.44.26-1.64,1.8-2.75,3.44-2.48,1.61.26,3.22.5,4.84.73,2.38.33,4.78.64,7.16.9,1.65.18,2.83,1.67,2.65,3.31-.17,1.53-1.47,2.67-2.98,2.67Zm-118.26-.54c-.96,0-1.9-.46-2.48-1.31-.93-1.37-.58-3.24.79-4.17,3.29-2.25,6.59-4.63,9.81-7.09,1.32-1.01,3.2-.76,4.21.56,1.01,1.32.76,3.2-.56,4.21-3.3,2.52-6.69,4.97-10.07,7.28-.52.35-1.11.52-1.69.52Zm191.63-.86c-1.48,0-2.76-1.09-2.97-2.59-.22-1.64.93-3.15,2.57-3.38,3.95-.54,7.99-1.16,12.02-1.84,1.64-.27,3.18.82,3.46,2.46.28,1.63-.82,3.18-2.45,3.46-4.1.7-8.21,1.33-12.22,1.87-.14.02-.27.03-.41.03Zm-946.98-.39c-.44,0-.88-.1-1.3-.3-1.49-.72-2.12-2.51-1.4-4.01,1.79-3.71,3.65-7.42,5.52-11.04.76-1.47,2.57-2.05,4.04-1.28,1.47.76,2.05,2.57,1.28,4.04-1.85,3.57-3.68,7.23-5.44,10.89-.52,1.07-1.59,1.7-2.7,1.7Zm831.6-6.67c-.28,0-.57-.04-.85-.12-3.94-1.17-7.92-2.45-11.81-3.82-1.56-.55-2.39-2.26-1.84-3.82.55-1.56,2.26-2.39,3.82-1.84,3.8,1.33,7.68,2.59,11.53,3.72,1.59.47,2.5,2.14,2.03,3.73-.39,1.3-1.58,2.15-2.88,2.15Zm157.52-1.04c-1.35,0-2.58-.92-2.91-2.29-.39-1.61.59-3.23,2.2-3.63,3.85-.94,7.82-1.96,11.8-3.04,1.6-.43,3.25.51,3.68,2.11.43,1.6-.51,3.25-2.11,3.68-4.03,1.09-8.05,2.13-11.95,3.08-.24.06-.48.09-.71.09Zm-460.19-7.24c-.63,0-1.27-.2-1.81-.61-3.21-2.43-6.48-5-9.73-7.63-1.29-1.04-1.49-2.93-.45-4.22,1.04-1.29,2.93-1.49,4.22-.45,3.2,2.59,6.42,5.11,9.58,7.51,1.32,1,1.58,2.88.58,4.2-.59.78-1.49,1.19-2.39,1.19Zm501.43-4.64c-1.26,0-2.44-.8-2.85-2.07-.51-1.58.34-3.27,1.92-3.78,3.76-1.23,7.65-2.54,11.57-3.9,1.57-.54,3.28.29,3.82,1.85s-.29,3.27-1.85,3.82c-3.95,1.37-7.88,2.69-11.67,3.93-.31.1-.62.15-.93.15Zm-238.67-2.75c-.45,0-.9-.1-1.33-.31-3.69-1.83-7.39-3.77-10.98-5.78-1.45-.81-1.97-2.63-1.16-4.08.81-1.45,2.63-1.97,4.08-1.16,1.38.77,2.78,1.53,4.18,2.28,2.79-2.77,5.55-5.63,8.21-8.53,1.12-1.22,3.02-1.3,4.24-.18,1.22,1.12,1.3,3.02.18,4.24-2.28,2.49-4.64,4.96-7.03,7.36.31.16.63.31.94.47,1.49.74,2.09,2.54,1.36,4.02-.52,1.06-1.59,1.67-2.69,1.67Zm279.07-11.73c-1.21,0-2.34-.73-2.8-1.92-.6-1.55.17-3.28,1.72-3.88,3.81-1.47,7.61-2.96,11.39-4.46,1.54-.62,3.28.14,3.9,1.68.61,1.54-.14,3.28-1.68,3.9-3.8,1.51-7.62,3.01-11.45,4.49-.35.14-.72.2-1.08.2Zm-1050.17-3.55c-.54,0-1.08-.14-1.58-.45-1.41-.87-1.84-2.72-.97-4.13,2.18-3.52,4.42-7.01,6.68-10.39.92-1.38,2.78-1.75,4.16-.83,1.38.92,1.75,2.78.83,4.16-2.22,3.33-4.43,6.77-6.57,10.23-.57.92-1.55,1.42-2.55,1.42Zm475.51-4.97c-.72,0-1.45-.26-2.02-.79-2.88-2.63-5.83-5.37-9.02-8.36-1.21-1.13-1.27-3.03-.13-4.24,1.13-1.21,3.03-1.27,4.24-.13,3.17,2.98,6.1,5.69,8.96,8.31,1.22,1.12,1.31,3.01.19,4.24-.59.65-1.4.98-2.22.98Zm258.94-1.98c-.61,0-1.23-.19-1.77-.58-3.33-2.43-6.64-4.97-9.84-7.56-1.29-1.04-1.49-2.93-.45-4.22,1.04-1.29,2.93-1.49,4.22-.45,3.13,2.53,6.36,5.01,9.61,7.38,1.34.98,1.63,2.85.66,4.19-.59.81-1.5,1.23-2.43,1.23Zm355.52-5.6c-1.17,0-2.29-.69-2.77-1.84-.64-1.53.08-3.29,1.61-3.93,3.76-1.58,7.52-3.16,11.28-4.76,1.53-.65,3.29.06,3.94,1.58s-.06,3.29-1.58,3.94c-3.76,1.61-7.54,3.2-11.31,4.78-.38.16-.77.23-1.16.23Zm-294.3-8.47c-.61,0-1.22-.18-1.76-.57-1.34-.97-1.64-2.85-.67-4.19,2.35-3.24,4.66-6.6,6.88-9.98.91-1.38,2.77-1.77,4.15-.86,1.38.91,1.77,2.77.86,4.15-2.27,3.46-4.64,6.89-7.04,10.21-.59.81-1.5,1.24-2.43,1.24Zm333.7-8.54c-1.15,0-2.25-.66-2.74-1.78-.67-1.51,0-3.29,1.52-3.96,3.73-1.66,7.45-3.33,11.17-5.01,1.51-.68,3.29-.01,3.97,1.5s.01,3.29-1.5,3.97c-3.73,1.69-7.46,3.36-11.21,5.02-.4.18-.81.26-1.22.26Zm-685-4.94c-.75,0-1.5-.28-2.08-.84-2.94-2.84-5.88-5.67-8.83-8.5-1.2-1.15-1.24-3.05-.09-4.24,1.15-1.2,3.05-1.23,4.24-.09,2.95,2.83,5.9,5.67,8.84,8.51,1.19,1.15,1.23,3.05.08,4.24-.59.61-1.37.92-2.16.92Zm-419.66-.55c-.66,0-1.32-.22-1.88-.66-1.29-1.04-1.5-2.93-.46-4.22,2.58-3.21,5.25-6.41,7.93-9.5,1.09-1.25,2.98-1.39,4.23-.3,1.25,1.08,1.39,2.98.3,4.23-2.63,3.03-5.25,6.17-7.78,9.32-.59.74-1.46,1.12-2.34,1.12Zm677.43-.08c-.79,0-1.57-.31-2.16-.92-2.87-2.98-5.68-6.07-8.37-9.17-1.08-1.25-.95-3.15.3-4.23s3.15-.95,4.23.3c2.62,3.03,5.37,6.04,8.16,8.94,1.15,1.19,1.11,3.09-.08,4.24-.58.56-1.33.84-2.08.84Zm466.25-12.29c-1.13,0-2.2-.64-2.72-1.72-.71-1.5-.06-3.29,1.44-3.99,3.69-1.74,7.38-3.49,11.06-5.25,1.5-.72,3.29-.08,4,1.41s.08,3.29-1.41,4c-3.69,1.77-7.39,3.52-11.09,5.27-.41.19-.85.29-1.28.29Zm-350.41-10.2c-.46,0-.92-.1-1.36-.33-1.48-.75-2.07-2.55-1.32-4.03,1.82-3.59,3.59-7.26,5.25-10.93.68-1.51,2.46-2.18,3.97-1.49,1.51.68,2.18,2.46,1.49,3.97-1.7,3.75-3.51,7.51-5.37,11.17-.53,1.04-1.58,1.64-2.68,1.64Zm-404.83-6.33c-.72,0-1.44-.26-2.01-.78-3.11-2.82-6.18-5.54-9.13-8.1-1.25-1.09-1.38-2.98-.3-4.23,1.09-1.25,2.98-1.38,4.23-.3,2.97,2.58,6.08,5.33,9.22,8.18,1.23,1.11,1.32,3.01.21,4.24-.59.65-1.41.99-2.23.99Zm793.86-2.18c-1.1,0-2.16-.61-2.69-1.66-.74-1.48-.13-3.28,1.35-4.02,3.65-1.82,7.3-3.65,10.94-5.49,1.48-.75,3.28-.16,4.03,1.32.75,1.48.15,3.28-1.32,4.03-3.65,1.85-7.31,3.68-10.98,5.51-.43.21-.89.32-1.33.32Zm-1153.25-.44c-.8,0-1.6-.32-2.19-.94-1.14-1.21-1.08-3.11.13-4.24,3.01-2.83,6.1-5.62,9.2-8.29,1.25-1.08,3.15-.94,4.23.31,1.08,1.25.94,3.15-.31,4.23-3.03,2.61-6.06,5.35-9.01,8.12-.58.54-1.32.81-2.06.81Zm621.65-2.06c-.98,0-1.94-.48-2.51-1.36-2.27-3.47-4.46-7.03-6.51-10.59-.83-1.44-.34-3.27,1.1-4.1,1.43-.83,3.27-.33,4.1,1.1,2,3.46,4.13,6.93,6.33,10.3.91,1.39.52,3.25-.87,4.15-.51.33-1.08.49-1.64.49Zm569.81-17.04c-1.08,0-2.12-.58-2.66-1.61-.77-1.47-.21-3.28,1.26-4.05,3.61-1.9,7.22-3.81,10.82-5.73,1.47-.78,3.28-.22,4.06,1.24.78,1.46.23,3.28-1.24,4.06-3.61,1.93-7.23,3.84-10.85,5.74-.44.23-.92.34-1.39.34Zm-865.04-5.74c-.63,0-1.26-.2-1.8-.6-3.29-2.47-6.61-4.86-9.85-7.11-1.36-.94-1.7-2.81-.75-4.17.94-1.36,2.81-1.7,4.17-.75,3.3,2.29,6.67,4.73,10.03,7.24,1.33.99,1.59,2.88.6,4.2-.59.79-1.49,1.2-2.4,1.2Zm-293.07-2.07c-.96,0-1.9-.46-2.48-1.3-.94-1.37-.59-3.23.78-4.17,3.41-2.33,6.9-4.61,10.38-6.77,1.41-.87,3.26-.44,4.13.97.87,1.41.44,3.26-.97,4.13-3.4,2.11-6.82,4.33-10.15,6.62-.52.36-1.11.53-1.69.53Zm747.3-3.75c-.31,0-.63-.05-.94-.15-1.57-.52-2.43-2.21-1.91-3.79,1.26-3.82,2.45-7.72,3.54-11.6.45-1.59,2.1-2.52,3.7-2.07,1.59.45,2.52,2.11,2.07,3.7-1.12,3.96-2.33,7.95-3.62,11.85-.42,1.26-1.59,2.06-2.85,2.06Zm448.58-8.82c-1.06,0-2.08-.56-2.63-1.55-.8-1.45-.28-3.28,1.17-4.08,3.57-1.98,7.13-3.96,10.69-5.96,1.44-.82,3.27-.3,4.08,1.15.81,1.45.3,3.27-1.15,4.08-3.57,2-7.14,4-10.72,5.98-.46.25-.96.38-1.45.38Zm-627.38-.59c-1.19,0-2.32-.71-2.79-1.89-1.54-3.84-2.98-7.76-4.29-11.67-.53-1.57.32-3.27,1.89-3.8,1.58-.53,3.27.32,3.8,1.89,1.28,3.8,2.68,7.62,4.18,11.35.62,1.54-.13,3.29-1.67,3.9-.37.15-.74.22-1.11.22Zm-311.67-7.65c-.45,0-.9-.1-1.33-.31-3.56-1.76-7.26-3.46-10.99-5.04-1.53-.65-2.24-2.41-1.59-3.93.65-1.52,2.41-2.24,3.93-1.59,3.84,1.63,7.64,3.37,11.3,5.19,1.49.73,2.09,2.53,1.36,4.02-.52,1.06-1.59,1.67-2.69,1.67Zm-219.62-.46c-1.13,0-2.21-.64-2.72-1.73-.7-1.5-.05-3.29,1.45-3.99,3.73-1.74,7.55-3.41,11.36-4.97,1.53-.63,3.29.11,3.91,1.64s-.11,3.29-1.64,3.91c-3.72,1.52-7.45,3.16-11.1,4.86-.41.19-.84.28-1.27.28Zm1195.99-12.49c-1.03,0-2.04-.53-2.59-1.49-.83-1.43-.35-3.27,1.08-4.1,3.53-2.05,7.05-4.12,10.56-6.19,1.43-.84,3.27-.37,4.11,1.06.84,1.43.37,3.27-1.06,4.11-3.52,2.08-7.05,4.15-10.59,6.21-.48.28-1,.41-1.51.41Zm-1016.44-2.24c-.27,0-.54-.04-.81-.11-3.86-1.07-7.81-2.07-11.75-2.96-1.62-.37-2.63-1.97-2.26-3.59.37-1.62,1.97-2.63,3.59-2.26,4.03.91,8.08,1.93,12.03,3.03,1.6.44,2.53,2.1,2.09,3.69-.37,1.33-1.58,2.2-2.89,2.2Zm-139.33-.08c-1.32,0-2.52-.87-2.89-2.2-.44-1.6.5-3.25,2.09-3.69,3.96-1.09,8-2.11,12.03-3.01,1.61-.36,3.22.65,3.59,2.27.36,1.62-.65,3.22-2.27,3.59-3.93.89-7.89,1.88-11.75,2.94-.27.07-.54.11-.8.11Zm97.21-7.9c-.11,0-.21,0-.32-.02-4-.42-8.06-.75-12.08-.99-1.65-.1-2.92-1.52-2.82-3.17.1-1.65,1.52-2.9,3.17-2.82,4.11.24,8.27.58,12.36,1.01,1.65.17,2.84,1.65,2.67,3.3-.16,1.54-1.46,2.69-2.98,2.69Zm-55.09-.04c-1.52,0-2.82-1.15-2.98-2.69-.17-1.65,1.03-3.12,2.67-3.29,4.1-.43,8.25-.76,12.36-1,1.65-.08,3.07,1.17,3.17,2.82s-1.17,3.07-2.82,3.17c-4.01.23-8.08.56-12.08.97-.11.01-.21.02-.31.02Zm638.06-1.36c-.17,0-.33-.01-.5-.04-1.63-.28-2.73-1.83-2.46-3.46.67-3.97,1.27-8,1.77-12,.21-1.64,1.71-2.8,3.35-2.6,1.64.21,2.81,1.71,2.6,3.35-.51,4.08-1.12,8.21-1.81,12.26-.25,1.46-1.52,2.5-2.95,2.5Zm-201.1-8.92c-1.41,0-2.67-1-2.94-2.44-.77-4.05-1.44-8.18-1.99-12.26-.22-1.64.93-3.15,2.57-3.37,1.65-.21,3.15.93,3.37,2.57.53,3.98,1.18,8,1.93,11.94.31,1.63-.76,3.2-2.39,3.51-.19.04-.38.05-.56.05Zm713.54-1.46c-1.01,0-2-.51-2.56-1.43-.87-1.41-.42-3.26.99-4.12,3.48-2.13,6.95-4.27,10.42-6.42,1.41-.87,3.26-.44,4.13.97s.44,3.26-.97,4.13c-3.48,2.16-6.96,4.31-10.45,6.44-.49.3-1.03.44-1.56.44Zm36.35-22.81c-.99,0-1.95-.49-2.53-1.38-.9-1.39-.49-3.25.9-4.15,3.43-2.21,6.86-4.42,10.28-6.65,1.39-.9,3.25-.51,4.15.88.9,1.39.51,3.25-.88,4.15-3.43,2.23-6.87,4.46-10.31,6.67-.5.32-1.06.48-1.62.48Zm-544.84-9.5s-.04,0-.05,0c-1.66-.03-2.98-1.39-2.95-3.05.03-1.57.04-3.15.04-4.72,0-2.46-.03-4.95-.1-7.41-.04-1.66,1.26-3.04,2.92-3.08,1.68-.07,3.03,1.26,3.08,2.92.07,2.51.1,5.05.1,7.57,0,1.61-.01,3.22-.04,4.83-.03,1.64-1.37,2.95-3,2.95Zm-209.05-8.9h0c-1.66,0-3-1.34-3-3,0-4.12.11-8.3.33-12.42.09-1.66,1.53-2.92,3.16-2.84,1.65.09,2.92,1.5,2.84,3.16-.21,4.01-.32,8.08-.32,12.1,0,1.66-1.34,3-3,3Zm789.73-5.21c-.96,0-1.91-.46-2.49-1.32-.93-1.37-.56-3.24.81-4.17,3.38-2.28,6.76-4.57,10.13-6.88,1.37-.93,3.24-.58,4.17.78.94,1.37.58,3.23-.78,4.17-3.38,2.31-6.76,4.61-10.16,6.9-.51.35-1.1.51-1.67.51Zm35.31-24.39c-.94,0-1.87-.44-2.45-1.27-.96-1.35-.64-3.23.72-4.18,3.33-2.36,6.66-4.72,9.97-7.1,1.35-.96,3.22-.66,4.19.69s.66,3.22-.69,4.19c-3.33,2.38-6.66,4.76-10,7.12-.53.37-1.13.55-1.73.55Zm-618.56-4.3c-1.47,0-2.76-1.09-2.97-2.59-.56-4-1.21-8.03-1.93-11.97-.3-1.63.78-3.19,2.41-3.5,1.62-.3,3.19.77,3.5,2.41.74,4.03,1.41,8.14,1.98,12.24.23,1.64-.92,3.16-2.56,3.38-.14.02-.28.03-.42.03Zm-202.47-8.77c-.19,0-.37-.02-.56-.05-1.63-.31-2.7-1.88-2.39-3.51.77-4.06,1.66-8.14,2.64-12.14.4-1.61,2.02-2.6,3.63-2.2,1.61.4,2.59,2.02,2.2,3.63-.96,3.89-1.82,7.87-2.57,11.82-.27,1.44-1.53,2.44-2.94,2.44Zm193.23-33.1c-1.28,0-2.47-.83-2.87-2.12-1.19-3.86-2.48-7.73-3.83-11.5-.56-1.56.25-3.28,1.81-3.84,1.56-.56,3.28.25,3.84,1.81,1.39,3.85,2.71,7.81,3.92,11.77.49,1.58-.4,3.26-1.99,3.75-.29.09-.59.13-.88.13Zm-181.29-8.06c-.37,0-.75-.07-1.11-.21-1.54-.61-2.29-2.36-1.68-3.9,1.53-3.84,3.18-7.68,4.92-11.41.7-1.5,2.48-2.15,3.99-1.46,1.5.7,2.15,2.48,1.46,3.99-1.69,3.63-3.3,7.37-4.79,11.1-.47,1.17-1.6,1.89-2.79,1.89Zm165.13-31.64c-1.07,0-2.1-.57-2.64-1.57-1.94-3.59-4-7.08-6.12-10.35-.9-1.39-.51-3.25.88-4.15,1.39-.9,3.25-.51,4.15.88,2.21,3.41,4.35,7.03,6.37,10.76.79,1.46.24,3.28-1.21,4.07-.45.25-.94.36-1.42.36Zm-145.25-6.3c-.59,0-1.18-.17-1.71-.53-1.36-.94-1.7-2.81-.76-4.17,2.39-3.45,4.93-6.81,7.54-9.98,1.05-1.28,2.94-1.46,4.22-.41,1.28,1.05,1.46,2.94.41,4.22-2.51,3.04-4.95,6.27-7.24,9.58-.58.84-1.52,1.29-2.47,1.29Zm119.33-27.66c-.71,0-1.42-.25-2-.76-3.02-2.69-6.16-5.12-9.34-7.22-1.38-.91-1.77-2.77-.85-4.16.91-1.38,2.77-1.77,4.16-.85,3.42,2.26,6.8,4.87,10.04,7.76,1.24,1.1,1.34,3,.24,4.24-.59.66-1.41,1-2.24,1Zm-89.79-3.23c-.93,0-1.84-.43-2.43-1.24-.97-1.34-.68-3.22.67-4.19,3.5-2.54,7.09-4.81,10.69-6.76,1.46-.79,3.28-.25,4.07,1.21.79,1.46.25,3.28-1.21,4.07-3.37,1.82-6.74,3.96-10.02,6.34-.53.39-1.15.57-1.76.57Zm51.7-15.01c-.13,0-.25,0-.38-.02-.29-.04-.57-.07-.86-.1-3.58-.4-7.21-.48-10.79-.23-1.66.1-3.08-1.13-3.2-2.79-.11-1.65,1.13-3.08,2.79-3.2,3.94-.27,7.94-.19,11.87.25.32.04.63.07.95.11,1.64.21,2.81,1.71,2.6,3.35-.19,1.52-1.48,2.62-2.97,2.62Z" fill="#4caf50" stroke-width="0"/>
</svg>