<?xml version="1.0" encoding="iso-8859-1"?>
<!-- Generator: Adobe Illustrator 19.0.0, SVG Export Plug-In . SVG Version: 6.00 Build 0)  -->
<svg version="1.1" id="Capa_1" xmlns="http://www.w3.org/2000/svg" x="0px" y="0px" viewBox="0 0 512 512" style="enable-background:new 0 0 512 512;" xml:space="preserve">
<linearGradient id="SVGID_1_" gradientUnits="userSpaceOnUse" x1="0" y1="258.0001" x2="512" y2="258.0001" gradientTransform="matrix(1 0 0 -1 0 514.0001)">
	<stop  offset="0" style="stop-color:#81c784"/>
	<stop  offset="0.021" style="stop-color:#66bb6a"/>
	<stop  offset="0.293" style="stop-color:#4caf50"/>
	<stop  offset="0.554" style="stop-color:#4caf50"/>
	<stop  offset="0.796" style="stop-color:#43a047"/>
	<stop  offset="1" style="stop-color:#2e7d32"/>
</linearGradient>
<path style="fill:url(#SVGID_1_);" d="M332,140.055c0-17.673,14.327-32,32-32s32,14.327,32,32s-14.327,32-32,32
	S332,157.728,332,140.055z M128,491.934v-36l36-0.001c11.045,0,20-8.954,20-20v-35.999h36c11.046,0,20-8.954,20-20s-8.954-20-20-20
	h-56c-11.046,0-20,8.954-20,20v35.999l-36,0.001c-11.045,0-20,8.954-20,20v36H40v-59.716l177.353-177.353
	c6.515-6.516,7.736-16.639,2.958-24.517c-6.931-11.424-13.298-23.632-18.923-36.285c-6.599-14.841-3.237-32.57,8.366-44.119
	l78.537-78.169c11.212-11.159,28.011-14.719,42.798-9.068c23.222,8.876,56.69,25.215,84.256,52.652
	c27.735,27.604,44.62,61.567,53.9,85.197c5.791,14.747,2.272,31.503-8.965,42.687l-79.486,79.114
	c-11.574,11.52-28.851,14.887-44.016,8.58c-12.507-5.202-24.619-11.382-36-18.367c-9.414-5.778-21.729-2.83-27.507,6.584
	c-5.778,9.414-2.831,21.729,6.583,27.508c13.152,8.072,27.136,15.207,41.562,21.207c30.142,12.539,64.524,5.8,87.595-17.161
	l79.486-79.113c22.544-22.439,29.602-56.063,17.979-85.659c-10.679-27.193-30.264-66.431-62.915-98.927
	c-32.535-32.384-71.356-51.408-98.194-61.666c-29.464-11.261-62.945-4.163-85.295,18.082l-78.538,78.17
	c-23.281,23.171-29.991,58.825-16.698,88.72c4.122,9.271,8.605,18.341,13.395,27.103L5.858,389.791
	C2.107,393.542,0,398.629,0,403.934v88c0,11.046,8.954,20,20,20h88C119.046,511.934,128,502.98,128,491.934z"/>
</svg>
