<svg viewBox="0 0 512 512" xmlns="http://www.w3.org/2000/svg"
    xmlns:xlink="http://www.w3.org/1999/xlink">
    <linearGradient id="a" gradientTransform="matrix(1 0 0 -1 0 -22278)"
        gradientUnits="userSpaceOnUse" x1="0" x2="512" y1="-22534" y2="-22534">
        <stop offset="0" style="stop-color:#81c784"/>
        <stop offset="0.021" style="stop-color:#66bb6a"/>
        <stop offset="0.293" style="stop-color:#4caf50"/>
        <stop offset="0.554" style="stop-color:#4caf50"/>
        <stop offset="0.796" style="stop-color:#43a047"/>
        <stop offset="1" style="stop-color:#2e7d32"/>
    </linearGradient>
    <path
        d="m512 256c0 141.386719-114.613281 256-256 256s-256-114.613281-256-256 114.613281-256 256-256 256 114.613281 256 256zm0 0"
        fill="url(#a)" />
    <g fill="#fff">
        <path
            d="m368.101562 163.351562c0 12.132813-9.832031 21.96875-21.964843 21.96875-12.132813 0-21.964844-9.835937-21.964844-21.96875 0-12.128906 9.832031-21.964843 21.964844-21.964843 12.132812 0 21.964843 9.835937 21.964843 21.964843zm0 0" />
        <path
            d="m170.40625 419.894531h-60.40625c-8.28125 0-15-6.714843-15-15v-60.40625c0-3.976562 1.582031-7.792969 4.394531-10.605469l117.652344-117.652343c-3.132813-5.785157-6.074219-11.757813-8.785156-17.859375-9.339844-21-4.625-46.046875 11.726562-62.320313l53.910157-53.660156c15.699218-15.621094 39.210937-20.601563 59.902343-12.695313 18.535157 7.082032 45.351563 20.226563 67.847657 42.613282 22.570312 22.464844 36.097656 49.566406 43.472656 68.34375 8.164062 20.789062 3.207031 44.40625-12.628906 60.167968l-54.5625 54.308594c-16.203126 16.125-40.347657 20.851563-61.511719 12.050782-9.964844-4.144532-19.621094-9.070313-28.707031-14.648438-7.0625-4.332031-9.273438-13.566406-4.9375-20.628906 4.332031-7.0625 13.570312-9.273438 20.628906-4.9375 7.753906 4.761718 16.011718 8.972656 24.535156 12.515625 9.933594 4.132812 21.25 1.929687 28.832031-5.617188l54.5625-54.304687c7.351563-7.320313 9.65625-18.285156 5.867188-27.9375-6.328125-16.105469-17.832031-39.25-36.714844-58.046875-18.765625-18.679688-41.570313-29.808594-57.390625-35.855469-9.6875-3.699219-20.6875-1.367188-28.03125 5.9375l-53.910156 53.660156c-7.59375 7.558594-9.792969 19.160156-5.476563 28.867188 3.839844 8.636718 8.183594 16.96875 12.914063 24.765625 3.585937 5.90625 2.667968 13.5-2.21875 18.386719l-121.367188 121.371093v39.191407h30.40625v-23.4375c0-8.285157 6.714844-15 15-15h23.441406v-23.441407c0-8.285156 6.714844-15 15-15h38.4375c8.285157 0 15 6.714844 15 15 0 8.285157-6.714843 15-15 15h-23.4375v23.441407c0 8.28125-6.71875 15-15 15h-23.441406v23.4375c-.003906 8.28125-6.71875 14.996093-15.003906 14.996093zm0 0" />
    </g>
</svg>