<svg role="img" viewBox="0 0 24 24" xmlns="http://www.w3.org/2000/svg" id="Flatpak--Streamline-Simple-Icons" height="24" width="24">
  <path d="M12 0c-0.556 0 -1.111 0.144 -1.61 0.432l-7.603 4.39a3.217 3.217 0 0 0 -1.61 2.788v8.78c0 1.151 0.612 2.212 1.61 2.788l7.603 4.39a3.217 3.217 0 0 0 3.22 0l7.603 -4.39a3.217 3.217 0 0 0 1.61 -2.788V7.61a3.217 3.217 0 0 0 -1.61 -2.788L13.61 0.432A3.218 3.218 0 0 0 12 0Zm0 2.358c0.15 0 0.299 0.039 0.431 0.115l7.604 4.39c0.132 0.077 0.24 0.187 0.315 0.316L12 12v9.642a0.863 0.863 0 0 1 -0.431 -0.116l-7.604 -4.39a0.866 0.866 0 0 1 -0.431 -0.746V7.61c0 -0.153 0.041 -0.302 0.116 -0.43L12 12Z" fill="#5391d9" stroke-width="1"></path>
</svg>
