<svg version="1.1" id="Layer_1" xmlns="http://www.w3.org/2000/svg" x="0px" y="0px" viewBox="0 0 512 512" style="enable-background:new 0 0 512 512;" xml:space="preserve">
<g>
	<linearGradient id="SVGID_1_" gradientUnits="userSpaceOnUse" x1="52.2339" y1="256" x2="459.7661" y2="256">
		<stop offset="0" style="stop-color:#81c784"/>
		<stop offset="0.021" style="stop-color:#66bb6a"/>
		<stop offset="0.293" style="stop-color:#4caf50"/>
		<stop offset="0.554" style="stop-color:#4caf50"/>
		<stop offset="0.796" style="stop-color:#43a047"/>
		<stop offset="1" style="stop-color:#2e7d32"/>
	</linearGradient>

		<path style="fill:none;stroke:url(#SVGID_1_);stroke-width:40;stroke-linecap:round;stroke-linejoin:round;stroke-miterlimit:10;" d="&#10;&#9;&#9;M326.287,224.342L256,311.199l-49.224-46.769 M386.93,430.676c32.997-27.289,52.836-68.085,52.836-111.947V113.707l0,0&#10;&#9;&#9;c-55.817-18.386-107.86-46.551-153.66-83.158v0c-17.597-14.065-42.615-14.065-60.212,0v0c-45.8,36.607-97.843,64.772-153.66,83.158&#10;&#9;&#9;l0,0v205.022c0,56.456,32.865,107.832,84.354,131.866l79.008,36.879c12.93,6.035,27.877,6.035,40.807,0l21.997-10.268"/>
</g>
</svg>